<mxfile host="app.diagrams.net" modified="2024-02-12T02:47:28.293Z" agent="Mozilla/5.0 (Windows NT 10.0; Win64; x64) AppleWebKit/537.36 (KHTML, like Gecko) Chrome/121.0.0.0 Safari/537.36" etag="f-NsWuLldUQ2IA2f2JP_" version="23.1.2" type="github">
  <diagram name="Page-1" id="MlBlBjorpGjZ2gbs5vHp">
    <mxGraphModel dx="1728" dy="2043" grid="1" gridSize="10" guides="1" tooltips="1" connect="1" arrows="1" fold="1" page="1" pageScale="1" pageWidth="850" pageHeight="1100" math="0" shadow="0">
      <root>
        <mxCell id="0" />
        <mxCell id="1" parent="0" />
        <mxCell id="1AAUbC7XYYxkjnX6fTb0-182" value="" style="rounded=0;whiteSpace=wrap;html=1;fillColor=#dae8fc;strokeColor=#6c8ebf;" vertex="1" parent="1">
          <mxGeometry x="1680" y="660" width="900" height="310" as="geometry" />
        </mxCell>
        <mxCell id="1AAUbC7XYYxkjnX6fTb0-54" style="edgeStyle=orthogonalEdgeStyle;rounded=0;orthogonalLoop=1;jettySize=auto;html=1;exitX=1;exitY=0.5;exitDx=0;exitDy=0;entryX=0.008;entryY=0.254;entryDx=0;entryDy=0;entryPerimeter=0;movable=1;resizable=1;rotatable=1;deletable=1;editable=1;locked=0;connectable=1;startArrow=ERmandOne;startFill=0;endArrow=ERzeroToMany;endFill=0;" edge="1" parent="1" source="1AAUbC7XYYxkjnX6fTb0-5" target="1AAUbC7XYYxkjnX6fTb0-44">
          <mxGeometry relative="1" as="geometry">
            <mxPoint x="490" y="494.8620689655172" as="targetPoint" />
          </mxGeometry>
        </mxCell>
        <mxCell id="1AAUbC7XYYxkjnX6fTb0-24" style="edgeStyle=orthogonalEdgeStyle;rounded=0;orthogonalLoop=1;jettySize=auto;html=1;" edge="1" parent="1" source="1AAUbC7XYYxkjnX6fTb0-5" target="1AAUbC7XYYxkjnX6fTb0-25">
          <mxGeometry relative="1" as="geometry">
            <mxPoint x="350" y="730" as="targetPoint" />
          </mxGeometry>
        </mxCell>
        <mxCell id="1AAUbC7XYYxkjnX6fTb0-5" value="EMPLOYEE" style="shape=table;startSize=30;container=1;collapsible=0;childLayout=tableLayout;fixedRows=1;rowLines=0;fontStyle=0;strokeColor=default;fontSize=16;" vertex="1" parent="1">
          <mxGeometry x="261" y="390" width="180" height="210" as="geometry" />
        </mxCell>
        <mxCell id="1AAUbC7XYYxkjnX6fTb0-6" value="" style="shape=tableRow;horizontal=0;startSize=0;swimlaneHead=0;swimlaneBody=0;top=0;left=0;bottom=0;right=0;collapsible=0;dropTarget=0;fillColor=none;points=[[0,0.5],[1,0.5]];portConstraint=eastwest;strokeColor=inherit;fontSize=16;" vertex="1" parent="1AAUbC7XYYxkjnX6fTb0-5">
          <mxGeometry y="30" width="180" height="30" as="geometry" />
        </mxCell>
        <mxCell id="1AAUbC7XYYxkjnX6fTb0-7" value="PK" style="shape=partialRectangle;html=1;whiteSpace=wrap;connectable=0;fillColor=none;top=0;left=0;bottom=0;right=0;overflow=hidden;pointerEvents=1;strokeColor=inherit;fontSize=16;" vertex="1" parent="1AAUbC7XYYxkjnX6fTb0-6">
          <mxGeometry width="40" height="30" as="geometry">
            <mxRectangle width="40" height="30" as="alternateBounds" />
          </mxGeometry>
        </mxCell>
        <mxCell id="1AAUbC7XYYxkjnX6fTb0-8" value="Employee_Num" style="shape=partialRectangle;html=1;whiteSpace=wrap;connectable=0;fillColor=none;top=0;left=0;bottom=0;right=0;align=left;spacingLeft=6;overflow=hidden;strokeColor=inherit;fontSize=16;" vertex="1" parent="1AAUbC7XYYxkjnX6fTb0-6">
          <mxGeometry x="40" width="140" height="30" as="geometry">
            <mxRectangle width="140" height="30" as="alternateBounds" />
          </mxGeometry>
        </mxCell>
        <mxCell id="1AAUbC7XYYxkjnX6fTb0-9" value="" style="shape=tableRow;horizontal=0;startSize=0;swimlaneHead=0;swimlaneBody=0;top=0;left=0;bottom=0;right=0;collapsible=0;dropTarget=0;fillColor=none;points=[[0,0.5],[1,0.5]];portConstraint=eastwest;strokeColor=inherit;fontSize=16;" vertex="1" parent="1AAUbC7XYYxkjnX6fTb0-5">
          <mxGeometry y="60" width="180" height="30" as="geometry" />
        </mxCell>
        <mxCell id="1AAUbC7XYYxkjnX6fTb0-10" value="" style="shape=partialRectangle;html=1;whiteSpace=wrap;connectable=0;fillColor=none;top=0;left=0;bottom=0;right=0;overflow=hidden;strokeColor=inherit;fontSize=16;" vertex="1" parent="1AAUbC7XYYxkjnX6fTb0-9">
          <mxGeometry width="40" height="30" as="geometry">
            <mxRectangle width="40" height="30" as="alternateBounds" />
          </mxGeometry>
        </mxCell>
        <mxCell id="1AAUbC7XYYxkjnX6fTb0-11" value="Name" style="shape=partialRectangle;html=1;whiteSpace=wrap;connectable=0;fillColor=none;top=0;left=0;bottom=0;right=0;align=left;spacingLeft=6;overflow=hidden;strokeColor=inherit;fontSize=16;" vertex="1" parent="1AAUbC7XYYxkjnX6fTb0-9">
          <mxGeometry x="40" width="140" height="30" as="geometry">
            <mxRectangle width="140" height="30" as="alternateBounds" />
          </mxGeometry>
        </mxCell>
        <mxCell id="1AAUbC7XYYxkjnX6fTb0-12" value="" style="shape=tableRow;horizontal=0;startSize=0;swimlaneHead=0;swimlaneBody=0;top=0;left=0;bottom=0;right=0;collapsible=0;dropTarget=0;fillColor=none;points=[[0,0.5],[1,0.5]];portConstraint=eastwest;strokeColor=inherit;fontSize=16;" vertex="1" parent="1AAUbC7XYYxkjnX6fTb0-5">
          <mxGeometry y="90" width="180" height="30" as="geometry" />
        </mxCell>
        <mxCell id="1AAUbC7XYYxkjnX6fTb0-13" value="" style="shape=partialRectangle;html=1;whiteSpace=wrap;connectable=0;fillColor=none;top=0;left=0;bottom=0;right=0;overflow=hidden;strokeColor=inherit;fontSize=16;" vertex="1" parent="1AAUbC7XYYxkjnX6fTb0-12">
          <mxGeometry width="40" height="30" as="geometry">
            <mxRectangle width="40" height="30" as="alternateBounds" />
          </mxGeometry>
        </mxCell>
        <mxCell id="1AAUbC7XYYxkjnX6fTb0-14" value="Hire_Date" style="shape=partialRectangle;html=1;whiteSpace=wrap;connectable=0;fillColor=none;top=0;left=0;bottom=0;right=0;align=left;spacingLeft=6;overflow=hidden;strokeColor=inherit;fontSize=16;" vertex="1" parent="1AAUbC7XYYxkjnX6fTb0-12">
          <mxGeometry x="40" width="140" height="30" as="geometry">
            <mxRectangle width="140" height="30" as="alternateBounds" />
          </mxGeometry>
        </mxCell>
        <mxCell id="1AAUbC7XYYxkjnX6fTb0-15" style="shape=tableRow;horizontal=0;startSize=0;swimlaneHead=0;swimlaneBody=0;top=0;left=0;bottom=0;right=0;collapsible=0;dropTarget=0;fillColor=none;points=[[0,0.5],[1,0.5]];portConstraint=eastwest;strokeColor=inherit;fontSize=16;" vertex="1" parent="1AAUbC7XYYxkjnX6fTb0-5">
          <mxGeometry y="120" width="180" height="30" as="geometry" />
        </mxCell>
        <mxCell id="1AAUbC7XYYxkjnX6fTb0-16" style="shape=partialRectangle;html=1;whiteSpace=wrap;connectable=0;fillColor=none;top=0;left=0;bottom=0;right=0;overflow=hidden;strokeColor=inherit;fontSize=16;" vertex="1" parent="1AAUbC7XYYxkjnX6fTb0-15">
          <mxGeometry width="40" height="30" as="geometry">
            <mxRectangle width="40" height="30" as="alternateBounds" />
          </mxGeometry>
        </mxCell>
        <mxCell id="1AAUbC7XYYxkjnX6fTb0-17" value="Job_title" style="shape=partialRectangle;html=1;whiteSpace=wrap;connectable=0;fillColor=none;top=0;left=0;bottom=0;right=0;align=left;spacingLeft=6;overflow=hidden;strokeColor=inherit;fontSize=16;" vertex="1" parent="1AAUbC7XYYxkjnX6fTb0-15">
          <mxGeometry x="40" width="140" height="30" as="geometry">
            <mxRectangle width="140" height="30" as="alternateBounds" />
          </mxGeometry>
        </mxCell>
        <mxCell id="1AAUbC7XYYxkjnX6fTb0-18" style="shape=tableRow;horizontal=0;startSize=0;swimlaneHead=0;swimlaneBody=0;top=0;left=0;bottom=0;right=0;collapsible=0;dropTarget=0;fillColor=none;points=[[0,0.5],[1,0.5]];portConstraint=eastwest;strokeColor=inherit;fontSize=16;" vertex="1" parent="1AAUbC7XYYxkjnX6fTb0-5">
          <mxGeometry y="150" width="180" height="30" as="geometry" />
        </mxCell>
        <mxCell id="1AAUbC7XYYxkjnX6fTb0-19" style="shape=partialRectangle;html=1;whiteSpace=wrap;connectable=0;fillColor=none;top=0;left=0;bottom=0;right=0;overflow=hidden;strokeColor=inherit;fontSize=16;" vertex="1" parent="1AAUbC7XYYxkjnX6fTb0-18">
          <mxGeometry width="40" height="30" as="geometry">
            <mxRectangle width="40" height="30" as="alternateBounds" />
          </mxGeometry>
        </mxCell>
        <mxCell id="1AAUbC7XYYxkjnX6fTb0-20" value="SS_Num" style="shape=partialRectangle;html=1;whiteSpace=wrap;connectable=0;fillColor=none;top=0;left=0;bottom=0;right=0;align=left;spacingLeft=6;overflow=hidden;strokeColor=inherit;fontSize=16;" vertex="1" parent="1AAUbC7XYYxkjnX6fTb0-18">
          <mxGeometry x="40" width="140" height="30" as="geometry">
            <mxRectangle width="140" height="30" as="alternateBounds" />
          </mxGeometry>
        </mxCell>
        <mxCell id="1AAUbC7XYYxkjnX6fTb0-21" style="shape=tableRow;horizontal=0;startSize=0;swimlaneHead=0;swimlaneBody=0;top=0;left=0;bottom=0;right=0;collapsible=0;dropTarget=0;fillColor=none;points=[[0,0.5],[1,0.5]];portConstraint=eastwest;strokeColor=inherit;fontSize=16;" vertex="1" parent="1AAUbC7XYYxkjnX6fTb0-5">
          <mxGeometry y="180" width="180" height="30" as="geometry" />
        </mxCell>
        <mxCell id="1AAUbC7XYYxkjnX6fTb0-22" style="shape=partialRectangle;html=1;whiteSpace=wrap;connectable=0;fillColor=none;top=0;left=0;bottom=0;right=0;overflow=hidden;strokeColor=inherit;fontSize=16;" vertex="1" parent="1AAUbC7XYYxkjnX6fTb0-21">
          <mxGeometry width="40" height="30" as="geometry">
            <mxRectangle width="40" height="30" as="alternateBounds" />
          </mxGeometry>
        </mxCell>
        <mxCell id="1AAUbC7XYYxkjnX6fTb0-23" value="Dependent_Name" style="shape=partialRectangle;html=1;whiteSpace=wrap;connectable=0;fillColor=none;top=0;left=0;bottom=0;right=0;align=left;spacingLeft=6;overflow=hidden;strokeColor=inherit;fontSize=16;" vertex="1" parent="1AAUbC7XYYxkjnX6fTb0-21">
          <mxGeometry x="40" width="140" height="30" as="geometry">
            <mxRectangle width="140" height="30" as="alternateBounds" />
          </mxGeometry>
        </mxCell>
        <mxCell id="1AAUbC7XYYxkjnX6fTb0-29" style="edgeStyle=orthogonalEdgeStyle;rounded=0;orthogonalLoop=1;jettySize=auto;html=1;" edge="1" parent="1" source="1AAUbC7XYYxkjnX6fTb0-25" target="1AAUbC7XYYxkjnX6fTb0-30">
          <mxGeometry relative="1" as="geometry">
            <mxPoint x="350" y="760" as="targetPoint" />
          </mxGeometry>
        </mxCell>
        <mxCell id="1AAUbC7XYYxkjnX6fTb0-25" value="d" style="ellipse;whiteSpace=wrap;html=1;aspect=fixed;" vertex="1" parent="1">
          <mxGeometry x="335" y="690" width="30" height="30" as="geometry" />
        </mxCell>
        <mxCell id="1AAUbC7XYYxkjnX6fTb0-26" value="Job_title" style="text;html=1;align=center;verticalAlign=middle;resizable=0;points=[];autosize=1;strokeColor=none;fillColor=none;" vertex="1" parent="1">
          <mxGeometry x="365" y="660" width="70" height="30" as="geometry" />
        </mxCell>
        <mxCell id="1AAUbC7XYYxkjnX6fTb0-28" value="" style="shape=link;html=1;rounded=0;" edge="1" parent="1">
          <mxGeometry width="100" relative="1" as="geometry">
            <mxPoint x="325" y="720" as="sourcePoint" />
            <mxPoint x="375" y="720" as="targetPoint" />
          </mxGeometry>
        </mxCell>
        <mxCell id="1AAUbC7XYYxkjnX6fTb0-30" value="Inspector" style="shape=table;startSize=30;container=1;collapsible=0;childLayout=tableLayout;fixedRows=1;rowLines=0;fontStyle=0;strokeColor=default;fontSize=16;" vertex="1" parent="1">
          <mxGeometry x="39" y="780" width="230" height="120" as="geometry" />
        </mxCell>
        <mxCell id="1AAUbC7XYYxkjnX6fTb0-31" value="" style="shape=tableRow;horizontal=0;startSize=0;swimlaneHead=0;swimlaneBody=0;top=0;left=0;bottom=0;right=0;collapsible=0;dropTarget=0;fillColor=none;points=[[0,0.5],[1,0.5]];portConstraint=eastwest;strokeColor=inherit;fontSize=16;" vertex="1" parent="1AAUbC7XYYxkjnX6fTb0-30">
          <mxGeometry y="30" width="230" height="30" as="geometry" />
        </mxCell>
        <mxCell id="1AAUbC7XYYxkjnX6fTb0-32" value="PK,FK1" style="shape=partialRectangle;html=1;whiteSpace=wrap;connectable=0;fillColor=none;top=0;left=0;bottom=0;right=0;overflow=hidden;pointerEvents=1;strokeColor=inherit;fontSize=16;" vertex="1" parent="1AAUbC7XYYxkjnX6fTb0-31">
          <mxGeometry width="70" height="30" as="geometry">
            <mxRectangle width="70" height="30" as="alternateBounds" />
          </mxGeometry>
        </mxCell>
        <mxCell id="1AAUbC7XYYxkjnX6fTb0-33" value="Employee_Num" style="shape=partialRectangle;html=1;whiteSpace=wrap;connectable=0;fillColor=none;top=0;left=0;bottom=0;right=0;align=left;spacingLeft=6;overflow=hidden;strokeColor=inherit;fontSize=16;" vertex="1" parent="1AAUbC7XYYxkjnX6fTb0-31">
          <mxGeometry x="70" width="160" height="30" as="geometry">
            <mxRectangle width="160" height="30" as="alternateBounds" />
          </mxGeometry>
        </mxCell>
        <mxCell id="1AAUbC7XYYxkjnX6fTb0-34" value="" style="shape=tableRow;horizontal=0;startSize=0;swimlaneHead=0;swimlaneBody=0;top=0;left=0;bottom=0;right=0;collapsible=0;dropTarget=0;fillColor=none;points=[[0,0.5],[1,0.5]];portConstraint=eastwest;strokeColor=inherit;fontSize=16;" vertex="1" parent="1AAUbC7XYYxkjnX6fTb0-30">
          <mxGeometry y="60" width="230" height="30" as="geometry" />
        </mxCell>
        <mxCell id="1AAUbC7XYYxkjnX6fTb0-35" value="" style="shape=partialRectangle;html=1;whiteSpace=wrap;connectable=0;fillColor=none;top=0;left=0;bottom=0;right=0;overflow=hidden;strokeColor=inherit;fontSize=16;" vertex="1" parent="1AAUbC7XYYxkjnX6fTb0-34">
          <mxGeometry width="70" height="30" as="geometry">
            <mxRectangle width="70" height="30" as="alternateBounds" />
          </mxGeometry>
        </mxCell>
        <mxCell id="1AAUbC7XYYxkjnX6fTb0-36" value="Cert_Date" style="shape=partialRectangle;html=1;whiteSpace=wrap;connectable=0;fillColor=none;top=0;left=0;bottom=0;right=0;align=left;spacingLeft=6;overflow=hidden;strokeColor=inherit;fontSize=16;" vertex="1" parent="1AAUbC7XYYxkjnX6fTb0-34">
          <mxGeometry x="70" width="160" height="30" as="geometry">
            <mxRectangle width="160" height="30" as="alternateBounds" />
          </mxGeometry>
        </mxCell>
        <mxCell id="1AAUbC7XYYxkjnX6fTb0-37" value="" style="shape=tableRow;horizontal=0;startSize=0;swimlaneHead=0;swimlaneBody=0;top=0;left=0;bottom=0;right=0;collapsible=0;dropTarget=0;fillColor=none;points=[[0,0.5],[1,0.5]];portConstraint=eastwest;strokeColor=inherit;fontSize=16;" vertex="1" parent="1AAUbC7XYYxkjnX6fTb0-30">
          <mxGeometry y="90" width="230" height="30" as="geometry" />
        </mxCell>
        <mxCell id="1AAUbC7XYYxkjnX6fTb0-38" value="" style="shape=partialRectangle;html=1;whiteSpace=wrap;connectable=0;fillColor=none;top=0;left=0;bottom=0;right=0;overflow=hidden;strokeColor=inherit;fontSize=16;" vertex="1" parent="1AAUbC7XYYxkjnX6fTb0-37">
          <mxGeometry width="70" height="30" as="geometry">
            <mxRectangle width="70" height="30" as="alternateBounds" />
          </mxGeometry>
        </mxCell>
        <mxCell id="1AAUbC7XYYxkjnX6fTb0-39" value="Cert_Renewal" style="shape=partialRectangle;html=1;whiteSpace=wrap;connectable=0;fillColor=none;top=0;left=0;bottom=0;right=0;align=left;spacingLeft=6;overflow=hidden;strokeColor=inherit;fontSize=16;" vertex="1" parent="1AAUbC7XYYxkjnX6fTb0-37">
          <mxGeometry x="70" width="160" height="30" as="geometry">
            <mxRectangle width="160" height="30" as="alternateBounds" />
          </mxGeometry>
        </mxCell>
        <mxCell id="1AAUbC7XYYxkjnX6fTb0-40" value="Dependent" style="shape=table;startSize=30;container=1;collapsible=0;childLayout=tableLayout;fixedRows=1;rowLines=0;fontStyle=0;strokeColor=default;fontSize=16;" vertex="1" parent="1">
          <mxGeometry x="650" y="430" width="219.99999999999977" height="120" as="geometry" />
        </mxCell>
        <mxCell id="1AAUbC7XYYxkjnX6fTb0-41" value="" style="shape=tableRow;horizontal=0;startSize=0;swimlaneHead=0;swimlaneBody=0;top=0;left=0;bottom=0;right=0;collapsible=0;dropTarget=0;fillColor=none;points=[[0,0.5],[1,0.5]];portConstraint=eastwest;strokeColor=inherit;fontSize=16;" vertex="1" parent="1AAUbC7XYYxkjnX6fTb0-40">
          <mxGeometry y="30" width="219.99999999999977" height="30" as="geometry" />
        </mxCell>
        <mxCell id="1AAUbC7XYYxkjnX6fTb0-42" value="PK,FK!" style="shape=partialRectangle;html=1;whiteSpace=wrap;connectable=0;fillColor=none;top=0;left=0;bottom=0;right=0;overflow=hidden;pointerEvents=1;strokeColor=inherit;fontSize=16;" vertex="1" parent="1AAUbC7XYYxkjnX6fTb0-41">
          <mxGeometry width="67" height="30" as="geometry">
            <mxRectangle width="67" height="30" as="alternateBounds" />
          </mxGeometry>
        </mxCell>
        <mxCell id="1AAUbC7XYYxkjnX6fTb0-43" value="Employee_Num" style="shape=partialRectangle;html=1;whiteSpace=wrap;connectable=0;fillColor=none;top=0;left=0;bottom=0;right=0;align=left;spacingLeft=6;overflow=hidden;strokeColor=inherit;fontSize=16;" vertex="1" parent="1AAUbC7XYYxkjnX6fTb0-41">
          <mxGeometry x="67" width="153" height="30" as="geometry">
            <mxRectangle width="153" height="30" as="alternateBounds" />
          </mxGeometry>
        </mxCell>
        <mxCell id="1AAUbC7XYYxkjnX6fTb0-44" value="" style="shape=tableRow;horizontal=0;startSize=0;swimlaneHead=0;swimlaneBody=0;top=0;left=0;bottom=0;right=0;collapsible=0;dropTarget=0;fillColor=none;points=[[0,0.5],[1,0.5]];portConstraint=eastwest;strokeColor=inherit;fontSize=16;" vertex="1" parent="1AAUbC7XYYxkjnX6fTb0-40">
          <mxGeometry y="60" width="219.99999999999977" height="30" as="geometry" />
        </mxCell>
        <mxCell id="1AAUbC7XYYxkjnX6fTb0-45" value="PK" style="shape=partialRectangle;html=1;whiteSpace=wrap;connectable=0;fillColor=none;top=0;left=0;bottom=0;right=0;overflow=hidden;strokeColor=inherit;fontSize=16;" vertex="1" parent="1AAUbC7XYYxkjnX6fTb0-44">
          <mxGeometry width="67" height="30" as="geometry">
            <mxRectangle width="67" height="30" as="alternateBounds" />
          </mxGeometry>
        </mxCell>
        <mxCell id="1AAUbC7XYYxkjnX6fTb0-46" value="Dependent_Name" style="shape=partialRectangle;html=1;whiteSpace=wrap;connectable=0;fillColor=none;top=0;left=0;bottom=0;right=0;align=left;spacingLeft=6;overflow=hidden;strokeColor=inherit;fontSize=16;" vertex="1" parent="1AAUbC7XYYxkjnX6fTb0-44">
          <mxGeometry x="67" width="153" height="30" as="geometry">
            <mxRectangle width="153" height="30" as="alternateBounds" />
          </mxGeometry>
        </mxCell>
        <mxCell id="1AAUbC7XYYxkjnX6fTb0-47" value="" style="shape=tableRow;horizontal=0;startSize=0;swimlaneHead=0;swimlaneBody=0;top=0;left=0;bottom=0;right=0;collapsible=0;dropTarget=0;fillColor=none;points=[[0,0.5],[1,0.5]];portConstraint=eastwest;strokeColor=inherit;fontSize=16;" vertex="1" parent="1AAUbC7XYYxkjnX6fTb0-40">
          <mxGeometry y="90" width="219.99999999999977" height="30" as="geometry" />
        </mxCell>
        <mxCell id="1AAUbC7XYYxkjnX6fTb0-48" value="" style="shape=partialRectangle;html=1;whiteSpace=wrap;connectable=0;fillColor=none;top=0;left=0;bottom=0;right=0;overflow=hidden;strokeColor=inherit;fontSize=16;" vertex="1" parent="1AAUbC7XYYxkjnX6fTb0-47">
          <mxGeometry width="67" height="30" as="geometry">
            <mxRectangle width="67" height="30" as="alternateBounds" />
          </mxGeometry>
        </mxCell>
        <mxCell id="1AAUbC7XYYxkjnX6fTb0-49" value="Value 3" style="shape=partialRectangle;html=1;whiteSpace=wrap;connectable=0;fillColor=none;top=0;left=0;bottom=0;right=0;align=left;spacingLeft=6;overflow=hidden;strokeColor=inherit;fontSize=16;" vertex="1" parent="1AAUbC7XYYxkjnX6fTb0-47">
          <mxGeometry x="67" width="153" height="30" as="geometry">
            <mxRectangle width="153" height="30" as="alternateBounds" />
          </mxGeometry>
        </mxCell>
        <mxCell id="1AAUbC7XYYxkjnX6fTb0-66" value="" style="rounded=0;whiteSpace=wrap;html=1;fillColor=#dae8fc;strokeColor=#6c8ebf;" vertex="1" parent="1">
          <mxGeometry x="540" y="-570" width="630" height="340" as="geometry" />
        </mxCell>
        <mxCell id="1AAUbC7XYYxkjnX6fTb0-77" value="Current Data" style="rounded=0;whiteSpace=wrap;html=1;fillColor=#dae8fc;strokeColor=#6c8ebf;strokeWidth=4;" vertex="1" parent="1">
          <mxGeometry x="540" y="-570" width="120" height="60" as="geometry" />
        </mxCell>
        <mxCell id="1AAUbC7XYYxkjnX6fTb0-78" value="DEAN" style="shape=table;startSize=30;container=1;collapsible=0;childLayout=tableLayout;fixedRows=1;rowLines=0;fontStyle=0;strokeColor=#6c8ebf;fontSize=16;fillColor=#dae8fc;" vertex="1" parent="1">
          <mxGeometry x="680" y="-500" width="180" height="120" as="geometry" />
        </mxCell>
        <mxCell id="1AAUbC7XYYxkjnX6fTb0-79" value="" style="shape=tableRow;horizontal=0;startSize=0;swimlaneHead=0;swimlaneBody=0;top=0;left=0;bottom=0;right=0;collapsible=0;dropTarget=0;fillColor=none;points=[[0,0.5],[1,0.5]];portConstraint=eastwest;strokeColor=inherit;fontSize=16;" vertex="1" parent="1AAUbC7XYYxkjnX6fTb0-78">
          <mxGeometry y="30" width="180" height="30" as="geometry" />
        </mxCell>
        <mxCell id="1AAUbC7XYYxkjnX6fTb0-80" value="PK" style="shape=partialRectangle;html=1;whiteSpace=wrap;connectable=0;top=0;left=0;bottom=0;right=0;overflow=hidden;pointerEvents=1;fontSize=16;" vertex="1" parent="1AAUbC7XYYxkjnX6fTb0-79">
          <mxGeometry width="40" height="30" as="geometry">
            <mxRectangle width="40" height="30" as="alternateBounds" />
          </mxGeometry>
        </mxCell>
        <mxCell id="1AAUbC7XYYxkjnX6fTb0-81" value="EMPLOY_ID" style="shape=partialRectangle;html=1;whiteSpace=wrap;connectable=0;top=0;left=0;bottom=0;right=0;align=left;spacingLeft=6;overflow=hidden;fontSize=16;" vertex="1" parent="1AAUbC7XYYxkjnX6fTb0-79">
          <mxGeometry x="40" width="140" height="30" as="geometry">
            <mxRectangle width="140" height="30" as="alternateBounds" />
          </mxGeometry>
        </mxCell>
        <mxCell id="1AAUbC7XYYxkjnX6fTb0-82" value="" style="shape=tableRow;horizontal=0;startSize=0;swimlaneHead=0;swimlaneBody=0;top=0;left=0;bottom=0;right=0;collapsible=0;dropTarget=0;fillColor=none;points=[[0,0.5],[1,0.5]];portConstraint=eastwest;strokeColor=inherit;fontSize=16;" vertex="1" parent="1AAUbC7XYYxkjnX6fTb0-78">
          <mxGeometry y="60" width="180" height="30" as="geometry" />
        </mxCell>
        <mxCell id="1AAUbC7XYYxkjnX6fTb0-83" value="2" style="shape=partialRectangle;html=1;whiteSpace=wrap;connectable=0;top=0;left=0;bottom=0;right=0;overflow=hidden;fontSize=16;" vertex="1" parent="1AAUbC7XYYxkjnX6fTb0-82">
          <mxGeometry width="40" height="30" as="geometry">
            <mxRectangle width="40" height="30" as="alternateBounds" />
          </mxGeometry>
        </mxCell>
        <mxCell id="1AAUbC7XYYxkjnX6fTb0-84" value="NAME" style="shape=partialRectangle;html=1;whiteSpace=wrap;connectable=0;top=0;left=0;bottom=0;right=0;align=left;spacingLeft=6;overflow=hidden;fontSize=16;" vertex="1" parent="1AAUbC7XYYxkjnX6fTb0-82">
          <mxGeometry x="40" width="140" height="30" as="geometry">
            <mxRectangle width="140" height="30" as="alternateBounds" />
          </mxGeometry>
        </mxCell>
        <mxCell id="1AAUbC7XYYxkjnX6fTb0-85" value="" style="shape=tableRow;horizontal=0;startSize=0;swimlaneHead=0;swimlaneBody=0;top=0;left=0;bottom=0;right=0;collapsible=0;dropTarget=0;fillColor=none;points=[[0,0.5],[1,0.5]];portConstraint=eastwest;strokeColor=inherit;fontSize=16;" vertex="1" parent="1AAUbC7XYYxkjnX6fTb0-78">
          <mxGeometry y="90" width="180" height="30" as="geometry" />
        </mxCell>
        <mxCell id="1AAUbC7XYYxkjnX6fTb0-86" value="FK1" style="shape=partialRectangle;html=1;whiteSpace=wrap;connectable=0;top=0;left=0;bottom=0;right=0;overflow=hidden;fontSize=16;" vertex="1" parent="1AAUbC7XYYxkjnX6fTb0-85">
          <mxGeometry width="40" height="30" as="geometry">
            <mxRectangle width="40" height="30" as="alternateBounds" />
          </mxGeometry>
        </mxCell>
        <mxCell id="1AAUbC7XYYxkjnX6fTb0-87" value="DEPART_ID" style="shape=partialRectangle;html=1;whiteSpace=wrap;connectable=0;top=0;left=0;bottom=0;right=0;align=left;spacingLeft=6;overflow=hidden;fontSize=16;" vertex="1" parent="1AAUbC7XYYxkjnX6fTb0-85">
          <mxGeometry x="40" width="140" height="30" as="geometry">
            <mxRectangle width="140" height="30" as="alternateBounds" />
          </mxGeometry>
        </mxCell>
        <mxCell id="1AAUbC7XYYxkjnX6fTb0-94" style="edgeStyle=orthogonalEdgeStyle;rounded=0;orthogonalLoop=1;jettySize=auto;html=1;exitX=1;exitY=0.5;exitDx=0;exitDy=0;entryX=0;entryY=0.5;entryDx=0;entryDy=0;startArrow=ERmandOne;startFill=0;endArrow=ERzeroToOne;endFill=0;dashed=1;" edge="1" parent="1" source="1AAUbC7XYYxkjnX6fTb0-82" target="1AAUbC7XYYxkjnX6fTb0-71">
          <mxGeometry relative="1" as="geometry" />
        </mxCell>
        <mxCell id="1AAUbC7XYYxkjnX6fTb0-112" value="ADMINISTRATES" style="edgeLabel;html=1;align=center;verticalAlign=middle;resizable=0;points=[];" vertex="1" connectable="0" parent="1AAUbC7XYYxkjnX6fTb0-94">
          <mxGeometry x="-0.0728" y="2" relative="1" as="geometry">
            <mxPoint y="-13" as="offset" />
          </mxGeometry>
        </mxCell>
        <mxCell id="1AAUbC7XYYxkjnX6fTb0-96" value="" style="rounded=0;whiteSpace=wrap;html=1;fillColor=#dae8fc;strokeColor=#6c8ebf;" vertex="1" parent="1">
          <mxGeometry x="540" y="-210" width="630" height="350" as="geometry" />
        </mxCell>
        <mxCell id="1AAUbC7XYYxkjnX6fTb0-97" value="Historic Data" style="rounded=0;whiteSpace=wrap;html=1;fillColor=#dae8fc;strokeColor=#6c8ebf;strokeWidth=5;" vertex="1" parent="1">
          <mxGeometry x="540" y="-210" width="120" height="60" as="geometry" />
        </mxCell>
        <mxCell id="1AAUbC7XYYxkjnX6fTb0-98" value="JOB_HIST" style="shape=table;startSize=30;container=1;collapsible=0;childLayout=tableLayout;fixedRows=1;rowLines=0;fontStyle=0;strokeColor=#6c8ebf;fontSize=16;fillColor=#dae8fc;" vertex="1" parent="1">
          <mxGeometry x="780" y="-120" width="180" height="120" as="geometry" />
        </mxCell>
        <mxCell id="1AAUbC7XYYxkjnX6fTb0-99" value="" style="shape=tableRow;horizontal=0;startSize=0;swimlaneHead=0;swimlaneBody=0;top=0;left=0;bottom=0;right=0;collapsible=0;dropTarget=0;points=[[0,0.5],[1,0.5]];portConstraint=eastwest;fontSize=16;" vertex="1" parent="1AAUbC7XYYxkjnX6fTb0-98">
          <mxGeometry y="30" width="180" height="30" as="geometry" />
        </mxCell>
        <mxCell id="1AAUbC7XYYxkjnX6fTb0-100" value="PK" style="shape=partialRectangle;html=1;whiteSpace=wrap;connectable=0;fillColor=none;top=0;left=0;bottom=0;right=0;overflow=hidden;pointerEvents=1;strokeColor=inherit;fontSize=16;" vertex="1" parent="1AAUbC7XYYxkjnX6fTb0-99">
          <mxGeometry width="40" height="30" as="geometry">
            <mxRectangle width="40" height="30" as="alternateBounds" />
          </mxGeometry>
        </mxCell>
        <mxCell id="1AAUbC7XYYxkjnX6fTb0-101" value="EMPLOY_ID" style="shape=partialRectangle;html=1;whiteSpace=wrap;connectable=0;fillColor=none;top=0;left=0;bottom=0;right=0;align=left;spacingLeft=6;overflow=hidden;strokeColor=inherit;fontSize=16;" vertex="1" parent="1AAUbC7XYYxkjnX6fTb0-99">
          <mxGeometry x="40" width="140" height="30" as="geometry">
            <mxRectangle width="140" height="30" as="alternateBounds" />
          </mxGeometry>
        </mxCell>
        <mxCell id="1AAUbC7XYYxkjnX6fTb0-102" value="" style="shape=tableRow;horizontal=0;startSize=0;swimlaneHead=0;swimlaneBody=0;top=0;left=0;bottom=0;right=0;collapsible=0;dropTarget=0;fillColor=none;points=[[0,0.5],[1,0.5]];portConstraint=eastwest;strokeColor=inherit;fontSize=16;" vertex="1" parent="1AAUbC7XYYxkjnX6fTb0-98">
          <mxGeometry y="60" width="180" height="30" as="geometry" />
        </mxCell>
        <mxCell id="1AAUbC7XYYxkjnX6fTb0-103" value="PK" style="shape=partialRectangle;html=1;whiteSpace=wrap;connectable=0;top=0;left=0;bottom=0;right=0;overflow=hidden;fontSize=16;" vertex="1" parent="1AAUbC7XYYxkjnX6fTb0-102">
          <mxGeometry width="40" height="30" as="geometry">
            <mxRectangle width="40" height="30" as="alternateBounds" />
          </mxGeometry>
        </mxCell>
        <mxCell id="1AAUbC7XYYxkjnX6fTb0-104" value="DEPART_ID" style="shape=partialRectangle;html=1;whiteSpace=wrap;connectable=0;top=0;left=0;bottom=0;right=0;align=left;spacingLeft=6;overflow=hidden;fontSize=16;" vertex="1" parent="1AAUbC7XYYxkjnX6fTb0-102">
          <mxGeometry x="40" width="140" height="30" as="geometry">
            <mxRectangle width="140" height="30" as="alternateBounds" />
          </mxGeometry>
        </mxCell>
        <mxCell id="1AAUbC7XYYxkjnX6fTb0-105" value="" style="shape=tableRow;horizontal=0;startSize=0;swimlaneHead=0;swimlaneBody=0;top=0;left=0;bottom=0;right=0;collapsible=0;dropTarget=0;fillColor=none;points=[[0,0.5],[1,0.5]];portConstraint=eastwest;strokeColor=inherit;fontSize=16;" vertex="1" parent="1AAUbC7XYYxkjnX6fTb0-98">
          <mxGeometry y="90" width="180" height="30" as="geometry" />
        </mxCell>
        <mxCell id="1AAUbC7XYYxkjnX6fTb0-106" value="PK" style="shape=partialRectangle;html=1;whiteSpace=wrap;connectable=0;top=0;left=0;bottom=0;right=0;overflow=hidden;fontSize=16;" vertex="1" parent="1AAUbC7XYYxkjnX6fTb0-105">
          <mxGeometry width="40" height="30" as="geometry">
            <mxRectangle width="40" height="30" as="alternateBounds" />
          </mxGeometry>
        </mxCell>
        <mxCell id="1AAUbC7XYYxkjnX6fTb0-107" value="DATE_ASSIGN" style="shape=partialRectangle;html=1;whiteSpace=wrap;connectable=0;top=0;left=0;bottom=0;right=0;align=left;spacingLeft=6;overflow=hidden;fontSize=16;" vertex="1" parent="1AAUbC7XYYxkjnX6fTb0-105">
          <mxGeometry x="40" width="140" height="30" as="geometry">
            <mxRectangle width="140" height="30" as="alternateBounds" />
          </mxGeometry>
        </mxCell>
        <mxCell id="1AAUbC7XYYxkjnX6fTb0-110" style="edgeStyle=orthogonalEdgeStyle;rounded=0;orthogonalLoop=1;jettySize=auto;html=1;entryX=0.006;entryY=0.174;entryDx=0;entryDy=0;entryPerimeter=0;startArrow=ERmandOne;startFill=0;endArrow=ERzeroToMany;endFill=0;" edge="1" parent="1" source="1AAUbC7XYYxkjnX6fTb0-78" target="1AAUbC7XYYxkjnX6fTb0-102">
          <mxGeometry relative="1" as="geometry" />
        </mxCell>
        <mxCell id="1AAUbC7XYYxkjnX6fTb0-111" style="edgeStyle=orthogonalEdgeStyle;rounded=0;orthogonalLoop=1;jettySize=auto;html=1;entryX=1;entryY=0.5;entryDx=0;entryDy=0;verticalAlign=middle;startArrow=ERmandOne;startFill=0;endArrow=ERzeroToMany;endFill=0;" edge="1" parent="1" source="1AAUbC7XYYxkjnX6fTb0-67" target="1AAUbC7XYYxkjnX6fTb0-102">
          <mxGeometry relative="1" as="geometry" />
        </mxCell>
        <mxCell id="1AAUbC7XYYxkjnX6fTb0-67" value="DEPARTMENT" style="shape=table;startSize=30;container=1;collapsible=0;childLayout=tableLayout;fixedRows=1;rowLines=0;fontStyle=0;fontSize=16;fillColor=#dae8fc;strokeColor=#6c8ebf;" vertex="1" parent="1">
          <mxGeometry x="950" y="-500" width="180" height="180" as="geometry" />
        </mxCell>
        <mxCell id="1AAUbC7XYYxkjnX6fTb0-68" value="" style="shape=tableRow;horizontal=0;startSize=0;swimlaneHead=0;swimlaneBody=0;top=0;left=0;bottom=0;right=0;collapsible=0;dropTarget=0;fillColor=none;points=[[0,0.5],[1,0.5]];portConstraint=eastwest;strokeColor=inherit;fontSize=16;" vertex="1" parent="1AAUbC7XYYxkjnX6fTb0-67">
          <mxGeometry y="30" width="180" height="30" as="geometry" />
        </mxCell>
        <mxCell id="1AAUbC7XYYxkjnX6fTb0-69" value="PK" style="shape=partialRectangle;html=1;whiteSpace=wrap;connectable=0;top=0;left=0;bottom=0;right=0;overflow=hidden;pointerEvents=1;fontSize=16;" vertex="1" parent="1AAUbC7XYYxkjnX6fTb0-68">
          <mxGeometry width="40" height="30" as="geometry">
            <mxRectangle width="40" height="30" as="alternateBounds" />
          </mxGeometry>
        </mxCell>
        <mxCell id="1AAUbC7XYYxkjnX6fTb0-70" value="DEPART_ID" style="shape=partialRectangle;html=1;whiteSpace=wrap;connectable=0;top=0;left=0;bottom=0;right=0;align=left;spacingLeft=6;overflow=hidden;fontSize=16;" vertex="1" parent="1AAUbC7XYYxkjnX6fTb0-68">
          <mxGeometry x="40" width="140" height="30" as="geometry">
            <mxRectangle width="140" height="30" as="alternateBounds" />
          </mxGeometry>
        </mxCell>
        <mxCell id="1AAUbC7XYYxkjnX6fTb0-71" value="" style="shape=tableRow;horizontal=0;startSize=0;swimlaneHead=0;swimlaneBody=0;top=0;left=0;bottom=0;right=0;collapsible=0;dropTarget=0;fillColor=none;points=[[0,0.5],[1,0.5]];portConstraint=eastwest;strokeColor=inherit;fontSize=16;" vertex="1" parent="1AAUbC7XYYxkjnX6fTb0-67">
          <mxGeometry y="60" width="180" height="30" as="geometry" />
        </mxCell>
        <mxCell id="1AAUbC7XYYxkjnX6fTb0-72" value="" style="shape=partialRectangle;html=1;whiteSpace=wrap;connectable=0;top=0;left=0;bottom=0;right=0;overflow=hidden;fontSize=16;" vertex="1" parent="1AAUbC7XYYxkjnX6fTb0-71">
          <mxGeometry width="40" height="30" as="geometry">
            <mxRectangle width="40" height="30" as="alternateBounds" />
          </mxGeometry>
        </mxCell>
        <mxCell id="1AAUbC7XYYxkjnX6fTb0-73" value="DEPT_NAME" style="shape=partialRectangle;html=1;whiteSpace=wrap;connectable=0;top=0;left=0;bottom=0;right=0;align=left;spacingLeft=6;overflow=hidden;fontSize=16;" vertex="1" parent="1AAUbC7XYYxkjnX6fTb0-71">
          <mxGeometry x="40" width="140" height="30" as="geometry">
            <mxRectangle width="140" height="30" as="alternateBounds" />
          </mxGeometry>
        </mxCell>
        <mxCell id="1AAUbC7XYYxkjnX6fTb0-74" value="" style="shape=tableRow;horizontal=0;startSize=0;swimlaneHead=0;swimlaneBody=0;top=0;left=0;bottom=0;right=0;collapsible=0;dropTarget=0;fillColor=none;points=[[0,0.5],[1,0.5]];portConstraint=eastwest;strokeColor=inherit;fontSize=16;" vertex="1" parent="1AAUbC7XYYxkjnX6fTb0-67">
          <mxGeometry y="90" width="180" height="30" as="geometry" />
        </mxCell>
        <mxCell id="1AAUbC7XYYxkjnX6fTb0-75" value="FK1" style="shape=partialRectangle;html=1;whiteSpace=wrap;connectable=0;top=0;left=0;bottom=0;right=0;overflow=hidden;fontSize=16;" vertex="1" parent="1AAUbC7XYYxkjnX6fTb0-74">
          <mxGeometry width="40" height="30" as="geometry">
            <mxRectangle width="40" height="30" as="alternateBounds" />
          </mxGeometry>
        </mxCell>
        <mxCell id="1AAUbC7XYYxkjnX6fTb0-76" value="EMPOY_ID" style="shape=partialRectangle;html=1;whiteSpace=wrap;connectable=0;top=0;left=0;bottom=0;right=0;align=left;spacingLeft=6;overflow=hidden;fontSize=16;" vertex="1" parent="1AAUbC7XYYxkjnX6fTb0-74">
          <mxGeometry x="40" width="140" height="30" as="geometry">
            <mxRectangle width="140" height="30" as="alternateBounds" />
          </mxGeometry>
        </mxCell>
        <mxCell id="1AAUbC7XYYxkjnX6fTb0-88" style="shape=tableRow;horizontal=0;startSize=0;swimlaneHead=0;swimlaneBody=0;top=0;left=0;bottom=0;right=0;collapsible=0;dropTarget=0;fillColor=none;points=[[0,0.5],[1,0.5]];portConstraint=eastwest;strokeColor=inherit;fontSize=16;" vertex="1" parent="1AAUbC7XYYxkjnX6fTb0-67">
          <mxGeometry y="120" width="180" height="30" as="geometry" />
        </mxCell>
        <mxCell id="1AAUbC7XYYxkjnX6fTb0-89" style="shape=partialRectangle;html=1;whiteSpace=wrap;connectable=0;top=0;left=0;bottom=0;right=0;overflow=hidden;fontSize=16;" vertex="1" parent="1AAUbC7XYYxkjnX6fTb0-88">
          <mxGeometry width="40" height="30" as="geometry">
            <mxRectangle width="40" height="30" as="alternateBounds" />
          </mxGeometry>
        </mxCell>
        <mxCell id="1AAUbC7XYYxkjnX6fTb0-90" value="DATE_ASSIGN" style="shape=partialRectangle;html=1;whiteSpace=wrap;connectable=0;top=0;left=0;bottom=0;right=0;align=left;spacingLeft=6;overflow=hidden;fontSize=16;" vertex="1" parent="1AAUbC7XYYxkjnX6fTb0-88">
          <mxGeometry x="40" width="140" height="30" as="geometry">
            <mxRectangle width="140" height="30" as="alternateBounds" />
          </mxGeometry>
        </mxCell>
        <mxCell id="1AAUbC7XYYxkjnX6fTb0-91" style="shape=tableRow;horizontal=0;startSize=0;swimlaneHead=0;swimlaneBody=0;top=0;left=0;bottom=0;right=0;collapsible=0;dropTarget=0;fillColor=none;points=[[0,0.5],[1,0.5]];portConstraint=eastwest;strokeColor=inherit;fontSize=16;" vertex="1" parent="1AAUbC7XYYxkjnX6fTb0-67">
          <mxGeometry y="150" width="180" height="30" as="geometry" />
        </mxCell>
        <mxCell id="1AAUbC7XYYxkjnX6fTb0-92" style="shape=partialRectangle;html=1;whiteSpace=wrap;connectable=0;top=0;left=0;bottom=0;right=0;overflow=hidden;fontSize=16;" vertex="1" parent="1AAUbC7XYYxkjnX6fTb0-91">
          <mxGeometry width="40" height="30" as="geometry">
            <mxRectangle width="40" height="30" as="alternateBounds" />
          </mxGeometry>
        </mxCell>
        <mxCell id="1AAUbC7XYYxkjnX6fTb0-93" style="shape=partialRectangle;html=1;whiteSpace=wrap;connectable=0;top=0;left=0;bottom=0;right=0;align=left;spacingLeft=6;overflow=hidden;fontSize=16;" vertex="1" parent="1AAUbC7XYYxkjnX6fTb0-91">
          <mxGeometry x="40" width="140" height="30" as="geometry">
            <mxRectangle width="140" height="30" as="alternateBounds" />
          </mxGeometry>
        </mxCell>
        <mxCell id="1AAUbC7XYYxkjnX6fTb0-113" style="edgeStyle=orthogonalEdgeStyle;rounded=0;orthogonalLoop=1;jettySize=auto;html=1;exitX=1;exitY=0.5;exitDx=0;exitDy=0;entryX=0;entryY=0.5;entryDx=0;entryDy=0;startArrow=ERzeroToMany;startFill=0;endArrow=ERmandOne;endFill=0;dashed=1;" edge="1" parent="1" source="1AAUbC7XYYxkjnX6fTb0-85" target="1AAUbC7XYYxkjnX6fTb0-74">
          <mxGeometry relative="1" as="geometry" />
        </mxCell>
        <mxCell id="1AAUbC7XYYxkjnX6fTb0-114" value="EMPLOYS" style="edgeLabel;html=1;align=center;verticalAlign=middle;resizable=0;points=[];" vertex="1" connectable="0" parent="1AAUbC7XYYxkjnX6fTb0-113">
          <mxGeometry x="0.0345" y="-2" relative="1" as="geometry">
            <mxPoint y="13" as="offset" />
          </mxGeometry>
        </mxCell>
        <mxCell id="1AAUbC7XYYxkjnX6fTb0-125" value="" style="rounded=0;whiteSpace=wrap;html=1;fillColor=#dae8fc;strokeColor=#6c8ebf;" vertex="1" parent="1">
          <mxGeometry x="1680" y="110" width="900" height="520" as="geometry" />
        </mxCell>
        <mxCell id="1AAUbC7XYYxkjnX6fTb0-115" value="EMPLOYEE" style="shape=table;startSize=30;container=1;collapsible=0;childLayout=tableLayout;fixedRows=1;rowLines=0;fontStyle=0;fontSize=16;fillColor=#dae8fc;strokeColor=#6c8ebf;" vertex="1" parent="1">
          <mxGeometry x="1710" y="205" width="180" height="150.00000000000045" as="geometry" />
        </mxCell>
        <mxCell id="1AAUbC7XYYxkjnX6fTb0-116" value="" style="shape=tableRow;horizontal=0;startSize=0;swimlaneHead=0;swimlaneBody=0;top=0;left=0;bottom=0;right=0;collapsible=0;dropTarget=0;fillColor=none;points=[[0,0.5],[1,0.5]];portConstraint=eastwest;strokeColor=inherit;fontSize=16;" vertex="1" parent="1AAUbC7XYYxkjnX6fTb0-115">
          <mxGeometry y="30" width="180" height="30" as="geometry" />
        </mxCell>
        <mxCell id="1AAUbC7XYYxkjnX6fTb0-117" value="PK" style="shape=partialRectangle;html=1;whiteSpace=wrap;connectable=0;top=0;left=0;bottom=0;right=0;overflow=hidden;pointerEvents=1;fontSize=16;" vertex="1" parent="1AAUbC7XYYxkjnX6fTb0-116">
          <mxGeometry width="40" height="30" as="geometry">
            <mxRectangle width="40" height="30" as="alternateBounds" />
          </mxGeometry>
        </mxCell>
        <mxCell id="1AAUbC7XYYxkjnX6fTb0-118" value="EMP_ID" style="shape=partialRectangle;html=1;whiteSpace=wrap;connectable=0;top=0;left=0;bottom=0;right=0;align=left;spacingLeft=6;overflow=hidden;fontSize=16;" vertex="1" parent="1AAUbC7XYYxkjnX6fTb0-116">
          <mxGeometry x="40" width="140" height="30" as="geometry">
            <mxRectangle width="140" height="30" as="alternateBounds" />
          </mxGeometry>
        </mxCell>
        <mxCell id="1AAUbC7XYYxkjnX6fTb0-119" value="" style="shape=tableRow;horizontal=0;startSize=0;swimlaneHead=0;swimlaneBody=0;top=0;left=0;bottom=0;right=0;collapsible=0;dropTarget=0;fillColor=none;points=[[0,0.5],[1,0.5]];portConstraint=eastwest;strokeColor=inherit;fontSize=16;" vertex="1" parent="1AAUbC7XYYxkjnX6fTb0-115">
          <mxGeometry y="60" width="180" height="30" as="geometry" />
        </mxCell>
        <mxCell id="1AAUbC7XYYxkjnX6fTb0-120" value="" style="shape=partialRectangle;html=1;whiteSpace=wrap;connectable=0;top=0;left=0;bottom=0;right=0;overflow=hidden;fontSize=16;" vertex="1" parent="1AAUbC7XYYxkjnX6fTb0-119">
          <mxGeometry width="40" height="30" as="geometry">
            <mxRectangle width="40" height="30" as="alternateBounds" />
          </mxGeometry>
        </mxCell>
        <mxCell id="1AAUbC7XYYxkjnX6fTb0-121" value="NAME" style="shape=partialRectangle;html=1;whiteSpace=wrap;connectable=0;top=0;left=0;bottom=0;right=0;align=left;spacingLeft=6;overflow=hidden;fontSize=16;" vertex="1" parent="1AAUbC7XYYxkjnX6fTb0-119">
          <mxGeometry x="40" width="140" height="30" as="geometry">
            <mxRectangle width="140" height="30" as="alternateBounds" />
          </mxGeometry>
        </mxCell>
        <mxCell id="1AAUbC7XYYxkjnX6fTb0-122" value="" style="shape=tableRow;horizontal=0;startSize=0;swimlaneHead=0;swimlaneBody=0;top=0;left=0;bottom=0;right=0;collapsible=0;dropTarget=0;fillColor=none;points=[[0,0.5],[1,0.5]];portConstraint=eastwest;strokeColor=inherit;fontSize=16;" vertex="1" parent="1AAUbC7XYYxkjnX6fTb0-115">
          <mxGeometry y="90" width="180" height="30" as="geometry" />
        </mxCell>
        <mxCell id="1AAUbC7XYYxkjnX6fTb0-123" value="" style="shape=partialRectangle;html=1;whiteSpace=wrap;connectable=0;top=0;left=0;bottom=0;right=0;overflow=hidden;fontSize=16;" vertex="1" parent="1AAUbC7XYYxkjnX6fTb0-122">
          <mxGeometry width="40" height="30" as="geometry">
            <mxRectangle width="40" height="30" as="alternateBounds" />
          </mxGeometry>
        </mxCell>
        <mxCell id="1AAUbC7XYYxkjnX6fTb0-124" value="DATE_HIRED" style="shape=partialRectangle;html=1;whiteSpace=wrap;connectable=0;top=0;left=0;bottom=0;right=0;align=left;spacingLeft=6;overflow=hidden;fontSize=16;" vertex="1" parent="1AAUbC7XYYxkjnX6fTb0-122">
          <mxGeometry x="40" width="140" height="30" as="geometry">
            <mxRectangle width="140" height="30" as="alternateBounds" />
          </mxGeometry>
        </mxCell>
        <mxCell id="1AAUbC7XYYxkjnX6fTb0-221" style="shape=tableRow;horizontal=0;startSize=0;swimlaneHead=0;swimlaneBody=0;top=0;left=0;bottom=0;right=0;collapsible=0;dropTarget=0;fillColor=none;points=[[0,0.5],[1,0.5]];portConstraint=eastwest;strokeColor=inherit;fontSize=16;" vertex="1" parent="1AAUbC7XYYxkjnX6fTb0-115">
          <mxGeometry y="120" width="180" height="30" as="geometry" />
        </mxCell>
        <mxCell id="1AAUbC7XYYxkjnX6fTb0-222" style="shape=partialRectangle;html=1;whiteSpace=wrap;connectable=0;top=0;left=0;bottom=0;right=0;overflow=hidden;fontSize=16;" vertex="1" parent="1AAUbC7XYYxkjnX6fTb0-221">
          <mxGeometry width="40" height="30" as="geometry">
            <mxRectangle width="40" height="30" as="alternateBounds" />
          </mxGeometry>
        </mxCell>
        <mxCell id="1AAUbC7XYYxkjnX6fTb0-223" value="ROLE" style="shape=partialRectangle;html=1;whiteSpace=wrap;connectable=0;top=0;left=0;bottom=0;right=0;align=left;spacingLeft=6;overflow=hidden;fontSize=16;" vertex="1" parent="1AAUbC7XYYxkjnX6fTb0-221">
          <mxGeometry x="40" width="140" height="30" as="geometry">
            <mxRectangle width="140" height="30" as="alternateBounds" />
          </mxGeometry>
        </mxCell>
        <mxCell id="1AAUbC7XYYxkjnX6fTb0-126" value="d" style="ellipse;whiteSpace=wrap;html=1;aspect=fixed;" vertex="1" parent="1">
          <mxGeometry x="2120" y="305" width="20" height="20" as="geometry" />
        </mxCell>
        <mxCell id="1AAUbC7XYYxkjnX6fTb0-132" style="edgeStyle=orthogonalEdgeStyle;rounded=0;orthogonalLoop=1;jettySize=auto;html=1;endArrow=none;endFill=0;" edge="1" parent="1" source="1AAUbC7XYYxkjnX6fTb0-129" target="1AAUbC7XYYxkjnX6fTb0-133">
          <mxGeometry relative="1" as="geometry">
            <mxPoint x="2129.9999999999995" y="680" as="targetPoint" />
          </mxGeometry>
        </mxCell>
        <mxCell id="1AAUbC7XYYxkjnX6fTb0-163" style="edgeStyle=orthogonalEdgeStyle;rounded=0;orthogonalLoop=1;jettySize=auto;html=1;endArrow=none;endFill=0;" edge="1" parent="1" source="1AAUbC7XYYxkjnX6fTb0-129" target="1AAUbC7XYYxkjnX6fTb0-143">
          <mxGeometry relative="1" as="geometry" />
        </mxCell>
        <mxCell id="1AAUbC7XYYxkjnX6fTb0-164" style="edgeStyle=orthogonalEdgeStyle;rounded=0;orthogonalLoop=1;jettySize=auto;html=1;exitX=1;exitY=0.5;exitDx=0;exitDy=0;exitPerimeter=0;endArrow=none;endFill=0;" edge="1" parent="1" source="1AAUbC7XYYxkjnX6fTb0-129" target="1AAUbC7XYYxkjnX6fTb0-153">
          <mxGeometry relative="1" as="geometry" />
        </mxCell>
        <mxCell id="1AAUbC7XYYxkjnX6fTb0-129" value="" style="line;strokeWidth=2;html=1;" vertex="1" parent="1">
          <mxGeometry x="2115" y="325" width="30" height="15" as="geometry" />
        </mxCell>
        <mxCell id="1AAUbC7XYYxkjnX6fTb0-133" value="EN" style="shape=table;startSize=30;container=1;collapsible=0;childLayout=tableLayout;fixedRows=1;rowLines=0;fontStyle=0;strokeColor=#6c8ebf;fontSize=16;fillColor=#dae8fc;" vertex="1" parent="1">
          <mxGeometry x="2169.9999999999995" y="470" width="180" height="60" as="geometry" />
        </mxCell>
        <mxCell id="1AAUbC7XYYxkjnX6fTb0-134" value="" style="shape=tableRow;horizontal=0;startSize=0;swimlaneHead=0;swimlaneBody=0;top=0;left=0;bottom=0;right=0;collapsible=0;dropTarget=0;fillColor=none;points=[[0,0.5],[1,0.5]];portConstraint=eastwest;strokeColor=inherit;fontSize=16;" vertex="1" parent="1AAUbC7XYYxkjnX6fTb0-133">
          <mxGeometry y="30" width="180" height="30" as="geometry" />
        </mxCell>
        <mxCell id="1AAUbC7XYYxkjnX6fTb0-135" value="PK" style="shape=partialRectangle;html=1;whiteSpace=wrap;connectable=0;top=0;left=0;bottom=0;right=0;overflow=hidden;pointerEvents=1;fontSize=16;" vertex="1" parent="1AAUbC7XYYxkjnX6fTb0-134">
          <mxGeometry width="40" height="30" as="geometry">
            <mxRectangle width="40" height="30" as="alternateBounds" />
          </mxGeometry>
        </mxCell>
        <mxCell id="1AAUbC7XYYxkjnX6fTb0-136" value="EMP_ID" style="shape=partialRectangle;html=1;whiteSpace=wrap;connectable=0;top=0;left=0;bottom=0;right=0;align=left;spacingLeft=6;overflow=hidden;fontSize=16;" vertex="1" parent="1AAUbC7XYYxkjnX6fTb0-134">
          <mxGeometry x="40" width="140" height="30" as="geometry">
            <mxRectangle width="140" height="30" as="alternateBounds" />
          </mxGeometry>
        </mxCell>
        <mxCell id="1AAUbC7XYYxkjnX6fTb0-143" value="AF" style="shape=table;startSize=30;container=1;collapsible=0;childLayout=tableLayout;fixedRows=1;rowLines=0;fontStyle=0;strokeColor=#6c8ebf;fontSize=16;fillColor=#dae8fc;" vertex="1" parent="1">
          <mxGeometry x="2380" y="450" width="180" height="60" as="geometry" />
        </mxCell>
        <mxCell id="1AAUbC7XYYxkjnX6fTb0-144" value="" style="shape=tableRow;horizontal=0;startSize=0;swimlaneHead=0;swimlaneBody=0;top=0;left=0;bottom=0;right=0;collapsible=0;dropTarget=0;fillColor=none;points=[[0,0.5],[1,0.5]];portConstraint=eastwest;strokeColor=inherit;fontSize=16;" vertex="1" parent="1AAUbC7XYYxkjnX6fTb0-143">
          <mxGeometry y="30" width="180" height="30" as="geometry" />
        </mxCell>
        <mxCell id="1AAUbC7XYYxkjnX6fTb0-145" value="PK" style="shape=partialRectangle;html=1;whiteSpace=wrap;connectable=0;top=0;left=0;bottom=0;right=0;overflow=hidden;pointerEvents=1;fontSize=16;" vertex="1" parent="1AAUbC7XYYxkjnX6fTb0-144">
          <mxGeometry width="40" height="30" as="geometry">
            <mxRectangle width="40" height="30" as="alternateBounds" />
          </mxGeometry>
        </mxCell>
        <mxCell id="1AAUbC7XYYxkjnX6fTb0-146" value="EMP_ID" style="shape=partialRectangle;html=1;whiteSpace=wrap;connectable=0;top=0;left=0;bottom=0;right=0;align=left;spacingLeft=6;overflow=hidden;fontSize=16;" vertex="1" parent="1AAUbC7XYYxkjnX6fTb0-144">
          <mxGeometry x="40" width="140" height="30" as="geometry">
            <mxRectangle width="140" height="30" as="alternateBounds" />
          </mxGeometry>
        </mxCell>
        <mxCell id="1AAUbC7XYYxkjnX6fTb0-153" value="AV" style="shape=table;startSize=30;container=1;collapsible=0;childLayout=tableLayout;fixedRows=1;rowLines=0;fontStyle=0;strokeColor=#6c8ebf;fontSize=16;fillColor=#dae8fc;" vertex="1" parent="1">
          <mxGeometry x="2350" y="140" width="180" height="60" as="geometry" />
        </mxCell>
        <mxCell id="1AAUbC7XYYxkjnX6fTb0-154" value="" style="shape=tableRow;horizontal=0;startSize=0;swimlaneHead=0;swimlaneBody=0;top=0;left=0;bottom=0;right=0;collapsible=0;dropTarget=0;fillColor=none;points=[[0,0.5],[1,0.5]];portConstraint=eastwest;strokeColor=inherit;fontSize=16;" vertex="1" parent="1AAUbC7XYYxkjnX6fTb0-153">
          <mxGeometry y="30" width="180" height="30" as="geometry" />
        </mxCell>
        <mxCell id="1AAUbC7XYYxkjnX6fTb0-155" value="PK" style="shape=partialRectangle;html=1;whiteSpace=wrap;connectable=0;top=0;left=0;bottom=0;right=0;overflow=hidden;pointerEvents=1;fontSize=16;" vertex="1" parent="1AAUbC7XYYxkjnX6fTb0-154">
          <mxGeometry width="40" height="30" as="geometry">
            <mxRectangle width="40" height="30" as="alternateBounds" />
          </mxGeometry>
        </mxCell>
        <mxCell id="1AAUbC7XYYxkjnX6fTb0-156" value="EMP_ID" style="shape=partialRectangle;html=1;whiteSpace=wrap;connectable=0;top=0;left=0;bottom=0;right=0;align=left;spacingLeft=6;overflow=hidden;fontSize=16;" vertex="1" parent="1AAUbC7XYYxkjnX6fTb0-154">
          <mxGeometry x="40" width="140" height="30" as="geometry">
            <mxRectangle width="140" height="30" as="alternateBounds" />
          </mxGeometry>
        </mxCell>
        <mxCell id="1AAUbC7XYYxkjnX6fTb0-166" value="HISTORY" style="shape=table;startSize=30;container=1;collapsible=0;childLayout=tableLayout;fixedRows=1;rowLines=0;fontStyle=0;strokeColor=#6c8ebf;fontSize=16;fillColor=#dae8fc;" vertex="1" parent="1">
          <mxGeometry x="1899.9999999999995" y="690" width="180" height="150" as="geometry" />
        </mxCell>
        <mxCell id="1AAUbC7XYYxkjnX6fTb0-167" value="" style="shape=tableRow;horizontal=0;startSize=0;swimlaneHead=0;swimlaneBody=0;top=0;left=0;bottom=0;right=0;collapsible=0;dropTarget=0;fillColor=none;points=[[0,0.5],[1,0.5]];portConstraint=eastwest;strokeColor=inherit;fontSize=16;" vertex="1" parent="1AAUbC7XYYxkjnX6fTb0-166">
          <mxGeometry y="30" width="180" height="30" as="geometry" />
        </mxCell>
        <mxCell id="1AAUbC7XYYxkjnX6fTb0-168" value="PK" style="shape=partialRectangle;html=1;whiteSpace=wrap;connectable=0;top=0;left=0;bottom=0;right=0;overflow=hidden;pointerEvents=1;fontSize=16;" vertex="1" parent="1AAUbC7XYYxkjnX6fTb0-167">
          <mxGeometry width="40" height="30" as="geometry">
            <mxRectangle width="40" height="30" as="alternateBounds" />
          </mxGeometry>
        </mxCell>
        <mxCell id="1AAUbC7XYYxkjnX6fTb0-169" value="EMP_ID" style="shape=partialRectangle;html=1;whiteSpace=wrap;connectable=0;top=0;left=0;bottom=0;right=0;align=left;spacingLeft=6;overflow=hidden;fontSize=16;" vertex="1" parent="1AAUbC7XYYxkjnX6fTb0-167">
          <mxGeometry x="40" width="140" height="30" as="geometry">
            <mxRectangle width="140" height="30" as="alternateBounds" />
          </mxGeometry>
        </mxCell>
        <mxCell id="1AAUbC7XYYxkjnX6fTb0-170" value="" style="shape=tableRow;horizontal=0;startSize=0;swimlaneHead=0;swimlaneBody=0;top=0;left=0;bottom=0;right=0;collapsible=0;dropTarget=0;fillColor=none;points=[[0,0.5],[1,0.5]];portConstraint=eastwest;strokeColor=inherit;fontSize=16;" vertex="1" parent="1AAUbC7XYYxkjnX6fTb0-166">
          <mxGeometry y="60" width="180" height="30" as="geometry" />
        </mxCell>
        <mxCell id="1AAUbC7XYYxkjnX6fTb0-171" value="PK" style="shape=partialRectangle;html=1;whiteSpace=wrap;connectable=0;top=0;left=0;bottom=0;right=0;overflow=hidden;fontSize=16;" vertex="1" parent="1AAUbC7XYYxkjnX6fTb0-170">
          <mxGeometry width="40" height="30" as="geometry">
            <mxRectangle width="40" height="30" as="alternateBounds" />
          </mxGeometry>
        </mxCell>
        <mxCell id="1AAUbC7XYYxkjnX6fTb0-172" value="DATE_HIRED" style="shape=partialRectangle;html=1;whiteSpace=wrap;connectable=0;top=0;left=0;bottom=0;right=0;align=left;spacingLeft=6;overflow=hidden;fontSize=16;" vertex="1" parent="1AAUbC7XYYxkjnX6fTb0-170">
          <mxGeometry x="40" width="140" height="30" as="geometry">
            <mxRectangle width="140" height="30" as="alternateBounds" />
          </mxGeometry>
        </mxCell>
        <mxCell id="1AAUbC7XYYxkjnX6fTb0-173" value="" style="shape=tableRow;horizontal=0;startSize=0;swimlaneHead=0;swimlaneBody=0;top=0;left=0;bottom=0;right=0;collapsible=0;dropTarget=0;fillColor=none;points=[[0,0.5],[1,0.5]];portConstraint=eastwest;strokeColor=inherit;fontSize=16;" vertex="1" parent="1AAUbC7XYYxkjnX6fTb0-166">
          <mxGeometry y="90" width="180" height="30" as="geometry" />
        </mxCell>
        <mxCell id="1AAUbC7XYYxkjnX6fTb0-174" value="" style="shape=partialRectangle;html=1;whiteSpace=wrap;connectable=0;top=0;left=0;bottom=0;right=0;overflow=hidden;fontSize=16;" vertex="1" parent="1AAUbC7XYYxkjnX6fTb0-173">
          <mxGeometry width="40" height="30" as="geometry">
            <mxRectangle width="40" height="30" as="alternateBounds" />
          </mxGeometry>
        </mxCell>
        <mxCell id="1AAUbC7XYYxkjnX6fTb0-175" value="DATE_PROMOTE" style="shape=partialRectangle;html=1;whiteSpace=wrap;connectable=0;top=0;left=0;bottom=0;right=0;align=left;spacingLeft=6;overflow=hidden;fontSize=16;" vertex="1" parent="1AAUbC7XYYxkjnX6fTb0-173">
          <mxGeometry x="40" width="140" height="30" as="geometry">
            <mxRectangle width="140" height="30" as="alternateBounds" />
          </mxGeometry>
        </mxCell>
        <mxCell id="1AAUbC7XYYxkjnX6fTb0-176" style="shape=tableRow;horizontal=0;startSize=0;swimlaneHead=0;swimlaneBody=0;top=0;left=0;bottom=0;right=0;collapsible=0;dropTarget=0;fillColor=none;points=[[0,0.5],[1,0.5]];portConstraint=eastwest;strokeColor=inherit;fontSize=16;" vertex="1" parent="1AAUbC7XYYxkjnX6fTb0-166">
          <mxGeometry y="120" width="180" height="30" as="geometry" />
        </mxCell>
        <mxCell id="1AAUbC7XYYxkjnX6fTb0-177" style="shape=partialRectangle;html=1;whiteSpace=wrap;connectable=0;top=0;left=0;bottom=0;right=0;overflow=hidden;fontSize=16;" vertex="1" parent="1AAUbC7XYYxkjnX6fTb0-176">
          <mxGeometry width="40" height="30" as="geometry">
            <mxRectangle width="40" height="30" as="alternateBounds" />
          </mxGeometry>
        </mxCell>
        <mxCell id="1AAUbC7XYYxkjnX6fTb0-178" value="DATE_TERMIN" style="shape=partialRectangle;html=1;whiteSpace=wrap;connectable=0;top=0;left=0;bottom=0;right=0;align=left;spacingLeft=6;overflow=hidden;fontSize=16;" vertex="1" parent="1AAUbC7XYYxkjnX6fTb0-176">
          <mxGeometry x="40" width="140" height="30" as="geometry">
            <mxRectangle width="140" height="30" as="alternateBounds" />
          </mxGeometry>
        </mxCell>
        <mxCell id="1AAUbC7XYYxkjnX6fTb0-183" value="Historic Data" style="rounded=0;whiteSpace=wrap;html=1;" vertex="1" parent="1">
          <mxGeometry x="1680" y="660" width="120" height="60" as="geometry" />
        </mxCell>
        <mxCell id="1AAUbC7XYYxkjnX6fTb0-184" value="Current Data" style="rounded=0;whiteSpace=wrap;html=1;" vertex="1" parent="1">
          <mxGeometry x="1680" y="110" width="120" height="60" as="geometry" />
        </mxCell>
        <mxCell id="1AAUbC7XYYxkjnX6fTb0-165" style="edgeStyle=orthogonalEdgeStyle;rounded=0;orthogonalLoop=1;jettySize=auto;html=1;startArrow=ERmandOne;startFill=0;endArrow=ERzeroToMany;endFill=0;exitX=0.5;exitY=1;exitDx=0;exitDy=0;" edge="1" parent="1" source="1AAUbC7XYYxkjnX6fTb0-115" target="1AAUbC7XYYxkjnX6fTb0-166">
          <mxGeometry relative="1" as="geometry">
            <mxPoint x="1949.9999999999995" y="740" as="targetPoint" />
            <mxPoint x="1850" y="380" as="sourcePoint" />
            <Array as="points">
              <mxPoint x="1850" y="375" />
              <mxPoint x="1850" y="765" />
            </Array>
          </mxGeometry>
        </mxCell>
        <mxCell id="1AAUbC7XYYxkjnX6fTb0-202" style="edgeStyle=orthogonalEdgeStyle;rounded=0;orthogonalLoop=1;jettySize=auto;html=1;" edge="1" parent="1" source="1AAUbC7XYYxkjnX6fTb0-191" target="1AAUbC7XYYxkjnX6fTb0-126">
          <mxGeometry relative="1" as="geometry" />
        </mxCell>
        <mxCell id="1AAUbC7XYYxkjnX6fTb0-220" style="edgeStyle=orthogonalEdgeStyle;rounded=0;orthogonalLoop=1;jettySize=auto;html=1;exitX=0.25;exitY=1;exitDx=0;exitDy=0;entryX=0.5;entryY=0;entryDx=0;entryDy=0;startArrow=ERmandOne;startFill=0;endArrow=ERzeroToMany;endFill=0;" edge="1" parent="1" source="1AAUbC7XYYxkjnX6fTb0-191" target="1AAUbC7XYYxkjnX6fTb0-204">
          <mxGeometry relative="1" as="geometry" />
        </mxCell>
        <mxCell id="1AAUbC7XYYxkjnX6fTb0-191" value="MECHANIC" style="shape=table;startSize=30;container=1;collapsible=0;childLayout=tableLayout;fixedRows=1;rowLines=0;fontStyle=0;strokeColor=#6c8ebf;fontSize=16;fillColor=#dae8fc;" vertex="1" parent="1">
          <mxGeometry x="2000" y="140" width="180" height="130" as="geometry" />
        </mxCell>
        <mxCell id="1AAUbC7XYYxkjnX6fTb0-192" value="" style="shape=tableRow;horizontal=0;startSize=0;swimlaneHead=0;swimlaneBody=0;top=0;left=0;bottom=0;right=0;collapsible=0;dropTarget=0;fillColor=none;points=[[0,0.5],[1,0.5]];portConstraint=eastwest;strokeColor=inherit;fontSize=16;" vertex="1" parent="1AAUbC7XYYxkjnX6fTb0-191">
          <mxGeometry y="30" width="180" height="40" as="geometry" />
        </mxCell>
        <mxCell id="1AAUbC7XYYxkjnX6fTb0-193" value="PK, FK1" style="shape=partialRectangle;html=1;whiteSpace=wrap;connectable=0;top=0;left=0;bottom=0;right=0;overflow=hidden;pointerEvents=1;fontSize=16;" vertex="1" parent="1AAUbC7XYYxkjnX6fTb0-192">
          <mxGeometry width="40" height="40" as="geometry">
            <mxRectangle width="40" height="40" as="alternateBounds" />
          </mxGeometry>
        </mxCell>
        <mxCell id="1AAUbC7XYYxkjnX6fTb0-194" value="EMP_NUM" style="shape=partialRectangle;html=1;whiteSpace=wrap;connectable=0;top=0;left=0;bottom=0;right=0;align=left;spacingLeft=6;overflow=hidden;fontSize=16;" vertex="1" parent="1AAUbC7XYYxkjnX6fTb0-192">
          <mxGeometry x="40" width="140" height="40" as="geometry">
            <mxRectangle width="140" height="40" as="alternateBounds" />
          </mxGeometry>
        </mxCell>
        <mxCell id="1AAUbC7XYYxkjnX6fTb0-195" value="" style="shape=tableRow;horizontal=0;startSize=0;swimlaneHead=0;swimlaneBody=0;top=0;left=0;bottom=0;right=0;collapsible=0;dropTarget=0;fillColor=none;points=[[0,0.5],[1,0.5]];portConstraint=eastwest;strokeColor=inherit;fontSize=16;" vertex="1" parent="1AAUbC7XYYxkjnX6fTb0-191">
          <mxGeometry y="70" width="180" height="30" as="geometry" />
        </mxCell>
        <mxCell id="1AAUbC7XYYxkjnX6fTb0-196" value="" style="shape=partialRectangle;html=1;whiteSpace=wrap;connectable=0;top=0;left=0;bottom=0;right=0;overflow=hidden;fontSize=16;" vertex="1" parent="1AAUbC7XYYxkjnX6fTb0-195">
          <mxGeometry width="40" height="30" as="geometry">
            <mxRectangle width="40" height="30" as="alternateBounds" />
          </mxGeometry>
        </mxCell>
        <mxCell id="1AAUbC7XYYxkjnX6fTb0-197" value="MECH_TYPE" style="shape=partialRectangle;html=1;whiteSpace=wrap;connectable=0;top=0;left=0;bottom=0;right=0;align=left;spacingLeft=6;overflow=hidden;fontSize=16;" vertex="1" parent="1AAUbC7XYYxkjnX6fTb0-195">
          <mxGeometry x="40" width="140" height="30" as="geometry">
            <mxRectangle width="140" height="30" as="alternateBounds" />
          </mxGeometry>
        </mxCell>
        <mxCell id="1AAUbC7XYYxkjnX6fTb0-198" value="" style="shape=tableRow;horizontal=0;startSize=0;swimlaneHead=0;swimlaneBody=0;top=0;left=0;bottom=0;right=0;collapsible=0;dropTarget=0;fillColor=none;points=[[0,0.5],[1,0.5]];portConstraint=eastwest;strokeColor=inherit;fontSize=16;" vertex="1" parent="1AAUbC7XYYxkjnX6fTb0-191">
          <mxGeometry y="100" width="180" height="30" as="geometry" />
        </mxCell>
        <mxCell id="1AAUbC7XYYxkjnX6fTb0-199" value="FK2" style="shape=partialRectangle;html=1;whiteSpace=wrap;connectable=0;top=0;left=0;bottom=0;right=0;overflow=hidden;fontSize=16;" vertex="1" parent="1AAUbC7XYYxkjnX6fTb0-198">
          <mxGeometry width="40" height="30" as="geometry">
            <mxRectangle width="40" height="30" as="alternateBounds" />
          </mxGeometry>
        </mxCell>
        <mxCell id="1AAUbC7XYYxkjnX6fTb0-200" value="COURSE_ID" style="shape=partialRectangle;html=1;whiteSpace=wrap;connectable=0;top=0;left=0;bottom=0;right=0;align=left;spacingLeft=6;overflow=hidden;fontSize=16;" vertex="1" parent="1AAUbC7XYYxkjnX6fTb0-198">
          <mxGeometry x="40" width="140" height="30" as="geometry">
            <mxRectangle width="140" height="30" as="alternateBounds" />
          </mxGeometry>
        </mxCell>
        <mxCell id="1AAUbC7XYYxkjnX6fTb0-201" style="edgeStyle=orthogonalEdgeStyle;rounded=0;orthogonalLoop=1;jettySize=auto;html=1;entryX=0;entryY=0.5;entryDx=0;entryDy=0;" edge="1" parent="1" source="1AAUbC7XYYxkjnX6fTb0-119" target="1AAUbC7XYYxkjnX6fTb0-191">
          <mxGeometry relative="1" as="geometry" />
        </mxCell>
        <mxCell id="1AAUbC7XYYxkjnX6fTb0-203" value="Mechanic Type" style="text;html=1;strokeColor=none;fillColor=none;align=center;verticalAlign=middle;whiteSpace=wrap;rounded=0;" vertex="1" parent="1">
          <mxGeometry x="2145" y="300" width="60" height="30" as="geometry" />
        </mxCell>
        <mxCell id="1AAUbC7XYYxkjnX6fTb0-204" value="COURSES" style="shape=table;startSize=30;container=1;collapsible=0;childLayout=tableLayout;fixedRows=1;rowLines=0;fontStyle=0;strokeColor=#6c8ebf;fontSize=16;fillColor=#dae8fc;" vertex="1" parent="1">
          <mxGeometry x="1920" y="380" width="180" height="180" as="geometry" />
        </mxCell>
        <mxCell id="1AAUbC7XYYxkjnX6fTb0-205" value="" style="shape=tableRow;horizontal=0;startSize=0;swimlaneHead=0;swimlaneBody=0;top=0;left=0;bottom=0;right=0;collapsible=0;dropTarget=0;fillColor=none;points=[[0,0.5],[1,0.5]];portConstraint=eastwest;strokeColor=inherit;fontSize=16;" vertex="1" parent="1AAUbC7XYYxkjnX6fTb0-204">
          <mxGeometry y="30" width="180" height="30" as="geometry" />
        </mxCell>
        <mxCell id="1AAUbC7XYYxkjnX6fTb0-206" value="PK" style="shape=partialRectangle;html=1;whiteSpace=wrap;connectable=0;top=0;left=0;bottom=0;right=0;overflow=hidden;pointerEvents=1;fontSize=16;" vertex="1" parent="1AAUbC7XYYxkjnX6fTb0-205">
          <mxGeometry width="40" height="30" as="geometry">
            <mxRectangle width="40" height="30" as="alternateBounds" />
          </mxGeometry>
        </mxCell>
        <mxCell id="1AAUbC7XYYxkjnX6fTb0-207" value="COURSE_ID" style="shape=partialRectangle;html=1;whiteSpace=wrap;connectable=0;top=0;left=0;bottom=0;right=0;align=left;spacingLeft=6;overflow=hidden;fontSize=16;" vertex="1" parent="1AAUbC7XYYxkjnX6fTb0-205">
          <mxGeometry x="40" width="140" height="30" as="geometry">
            <mxRectangle width="140" height="30" as="alternateBounds" />
          </mxGeometry>
        </mxCell>
        <mxCell id="1AAUbC7XYYxkjnX6fTb0-208" value="" style="shape=tableRow;horizontal=0;startSize=0;swimlaneHead=0;swimlaneBody=0;top=0;left=0;bottom=0;right=0;collapsible=0;dropTarget=0;fillColor=none;points=[[0,0.5],[1,0.5]];portConstraint=eastwest;strokeColor=inherit;fontSize=16;" vertex="1" parent="1AAUbC7XYYxkjnX6fTb0-204">
          <mxGeometry y="60" width="180" height="30" as="geometry" />
        </mxCell>
        <mxCell id="1AAUbC7XYYxkjnX6fTb0-209" value="" style="shape=partialRectangle;html=1;whiteSpace=wrap;connectable=0;top=0;left=0;bottom=0;right=0;overflow=hidden;fontSize=16;" vertex="1" parent="1AAUbC7XYYxkjnX6fTb0-208">
          <mxGeometry width="40" height="30" as="geometry">
            <mxRectangle width="40" height="30" as="alternateBounds" />
          </mxGeometry>
        </mxCell>
        <mxCell id="1AAUbC7XYYxkjnX6fTb0-210" value="NAME" style="shape=partialRectangle;html=1;whiteSpace=wrap;connectable=0;top=0;left=0;bottom=0;right=0;align=left;spacingLeft=6;overflow=hidden;fontSize=16;" vertex="1" parent="1AAUbC7XYYxkjnX6fTb0-208">
          <mxGeometry x="40" width="140" height="30" as="geometry">
            <mxRectangle width="140" height="30" as="alternateBounds" />
          </mxGeometry>
        </mxCell>
        <mxCell id="1AAUbC7XYYxkjnX6fTb0-211" value="" style="shape=tableRow;horizontal=0;startSize=0;swimlaneHead=0;swimlaneBody=0;top=0;left=0;bottom=0;right=0;collapsible=0;dropTarget=0;fillColor=none;points=[[0,0.5],[1,0.5]];portConstraint=eastwest;strokeColor=inherit;fontSize=16;" vertex="1" parent="1AAUbC7XYYxkjnX6fTb0-204">
          <mxGeometry y="90" width="180" height="30" as="geometry" />
        </mxCell>
        <mxCell id="1AAUbC7XYYxkjnX6fTb0-212" value="" style="shape=partialRectangle;html=1;whiteSpace=wrap;connectable=0;top=0;left=0;bottom=0;right=0;overflow=hidden;fontSize=16;" vertex="1" parent="1AAUbC7XYYxkjnX6fTb0-211">
          <mxGeometry width="40" height="30" as="geometry">
            <mxRectangle width="40" height="30" as="alternateBounds" />
          </mxGeometry>
        </mxCell>
        <mxCell id="1AAUbC7XYYxkjnX6fTb0-213" value="TYPE" style="shape=partialRectangle;html=1;whiteSpace=wrap;connectable=0;top=0;left=0;bottom=0;right=0;align=left;spacingLeft=6;overflow=hidden;fontSize=16;" vertex="1" parent="1AAUbC7XYYxkjnX6fTb0-211">
          <mxGeometry x="40" width="140" height="30" as="geometry">
            <mxRectangle width="140" height="30" as="alternateBounds" />
          </mxGeometry>
        </mxCell>
        <mxCell id="1AAUbC7XYYxkjnX6fTb0-214" style="shape=tableRow;horizontal=0;startSize=0;swimlaneHead=0;swimlaneBody=0;top=0;left=0;bottom=0;right=0;collapsible=0;dropTarget=0;fillColor=none;points=[[0,0.5],[1,0.5]];portConstraint=eastwest;strokeColor=inherit;fontSize=16;" vertex="1" parent="1AAUbC7XYYxkjnX6fTb0-204">
          <mxGeometry y="120" width="180" height="30" as="geometry" />
        </mxCell>
        <mxCell id="1AAUbC7XYYxkjnX6fTb0-215" style="shape=partialRectangle;html=1;whiteSpace=wrap;connectable=0;top=0;left=0;bottom=0;right=0;overflow=hidden;fontSize=16;" vertex="1" parent="1AAUbC7XYYxkjnX6fTb0-214">
          <mxGeometry width="40" height="30" as="geometry">
            <mxRectangle width="40" height="30" as="alternateBounds" />
          </mxGeometry>
        </mxCell>
        <mxCell id="1AAUbC7XYYxkjnX6fTb0-216" value="CERT" style="shape=partialRectangle;html=1;whiteSpace=wrap;connectable=0;top=0;left=0;bottom=0;right=0;align=left;spacingLeft=6;overflow=hidden;fontSize=16;" vertex="1" parent="1AAUbC7XYYxkjnX6fTb0-214">
          <mxGeometry x="40" width="140" height="30" as="geometry">
            <mxRectangle width="140" height="30" as="alternateBounds" />
          </mxGeometry>
        </mxCell>
        <mxCell id="1AAUbC7XYYxkjnX6fTb0-217" style="shape=tableRow;horizontal=0;startSize=0;swimlaneHead=0;swimlaneBody=0;top=0;left=0;bottom=0;right=0;collapsible=0;dropTarget=0;fillColor=none;points=[[0,0.5],[1,0.5]];portConstraint=eastwest;strokeColor=inherit;fontSize=16;" vertex="1" parent="1AAUbC7XYYxkjnX6fTb0-204">
          <mxGeometry y="150" width="180" height="30" as="geometry" />
        </mxCell>
        <mxCell id="1AAUbC7XYYxkjnX6fTb0-218" style="shape=partialRectangle;html=1;whiteSpace=wrap;connectable=0;top=0;left=0;bottom=0;right=0;overflow=hidden;fontSize=16;" vertex="1" parent="1AAUbC7XYYxkjnX6fTb0-217">
          <mxGeometry width="40" height="30" as="geometry">
            <mxRectangle width="40" height="30" as="alternateBounds" />
          </mxGeometry>
        </mxCell>
        <mxCell id="1AAUbC7XYYxkjnX6fTb0-219" value="PERFORMANCE" style="shape=partialRectangle;html=1;whiteSpace=wrap;connectable=0;top=0;left=0;bottom=0;right=0;align=left;spacingLeft=6;overflow=hidden;fontSize=16;" vertex="1" parent="1AAUbC7XYYxkjnX6fTb0-217">
          <mxGeometry x="40" width="140" height="30" as="geometry">
            <mxRectangle width="140" height="30" as="alternateBounds" />
          </mxGeometry>
        </mxCell>
        <mxCell id="1AAUbC7XYYxkjnX6fTb0-227" value="" style="line;strokeWidth=4;html=1;perimeter=backbonePerimeter;points=[];outlineConnect=0;" vertex="1" parent="1">
          <mxGeometry x="2110" y="340" width="40" height="10" as="geometry" />
        </mxCell>
      </root>
    </mxGraphModel>
  </diagram>
</mxfile>
